<svg width="237" height="150" viewBox="0 0 237 62" fill="none" xmlns="http://www.w3.org/2000/svg">
<path d="M45.099 29.3262C44.547 28.5591 43.867 27.8882 43.237 27.2188C41.6083 25.6687 39.7418 24.5365 38.1903 22.9137C34.5777 19.1524 33.9358 13.1052 36.45 8.55435C34.0587 9.05704 31.9452 10.2935 30.1278 11.664C23.498 16.6652 20.6709 25.7587 23.4807 33.7225C23.573 33.9755 23.6654 34.2284 23.6556 34.5532C23.6389 35.103 23.2489 35.5914 22.743 35.7761C22.1607 36.0086 21.5656 35.8404 21.1029 35.4262C20.9638 35.3039 20.8494 35.1561 20.766 34.9908C18.0507 31.3318 17.7563 26.1955 19.7798 22.155C15.5036 25.4268 13.0553 31.1051 13.2156 36.5375C13.3276 37.7915 13.4396 39.0454 13.8265 40.3078C14.1308 41.8177 14.76 43.3375 15.4695 44.6846C18.0371 49.0895 22.6159 52.3299 27.6196 53.107C32.9467 53.944 38.6986 53.1431 42.909 49.5691C47.6077 45.5598 49.4087 38.9614 47.2327 33.1927L46.9275 32.5332C46.4377 31.3678 45.099 29.3262 45.099 29.3262ZM36.7249 44.8294C36.007 45.4079 34.8378 46.0227 33.9306 46.2453C31.1016 47.1599 28.3454 45.6756 26.7462 43.9763C29.741 43.3669 31.5819 41.2217 32.1742 39.0137C32.6597 37.0275 31.9101 35.354 31.6436 33.42C31.3999 31.5618 31.4976 29.989 32.2246 28.2853C32.6706 29.2492 33.1415 30.214 33.7185 30.9818C35.5668 33.5391 38.557 34.7303 39.1036 38.1484C39.193 38.5013 39.2323 38.8527 39.2209 39.2275C39.2337 41.2788 38.2659 43.5005 36.7249 44.8294Z" fill="#1D2BCA"/>
<path d="M81.025 22.3442H73.473V41.8962H69.857V22.3442H62.273V19.1762H81.025V22.3442ZM87.8327 42.2162C86.5314 42.2162 85.3474 41.9922 84.2807 41.5442C83.2354 41.0749 82.3287 40.4456 81.5607 39.6562C80.7927 38.8456 80.1954 37.9282 79.7687 36.9042C79.3634 35.8589 79.1607 34.7496 79.1607 33.5762C79.1607 31.9976 79.5234 30.5576 80.2487 29.2562C80.9741 27.9336 81.9874 26.8776 83.2887 26.0882C84.5901 25.2776 86.1154 24.8722 87.8647 24.8722C89.6141 24.8722 91.1181 25.2776 92.3767 26.0882C93.6567 26.8776 94.6487 27.9229 95.3527 29.2242C96.0567 30.5256 96.4087 31.9229 96.4087 33.4162C96.4087 33.6722 96.3981 33.9176 96.3767 34.1522C96.3554 34.3656 96.3341 34.5469 96.3127 34.6962H82.9047C82.9687 35.6776 83.2354 36.5416 83.7047 37.2882C84.1954 38.0136 84.8141 38.5896 85.5607 39.0162C86.3074 39.4216 87.1074 39.6242 87.9607 39.6242C88.8994 39.6242 89.7847 39.3896 90.6167 38.9202C91.4701 38.4509 92.0461 37.8322 92.3447 37.0642L95.3527 37.9282C94.9901 38.7389 94.4354 39.4749 93.6887 40.1362C92.9634 40.7762 92.0994 41.2882 91.0967 41.6722C90.0941 42.0349 89.0061 42.2162 87.8327 42.2162ZM82.8087 32.3602H92.9207C92.8567 31.4002 92.5794 30.5576 92.0887 29.8322C91.6194 29.0856 91.0114 28.5096 90.2647 28.1042C89.5394 27.6776 88.7287 27.4642 87.8327 27.4642C86.9581 27.4642 86.1474 27.6776 85.4007 28.1042C84.6754 28.5096 84.0781 29.0856 83.6087 29.8322C83.1394 30.5576 82.8727 31.4002 82.8087 32.3602ZM106.864 42.2162C105.563 42.2162 104.379 41.9922 103.312 41.5442C102.267 41.0749 101.36 40.4349 100.592 39.6242C99.824 38.8136 99.2266 37.8856 98.8 36.8402C98.3946 35.7949 98.192 34.6856 98.192 33.5122C98.192 31.9336 98.544 30.4936 99.248 29.1922C99.9733 27.8909 100.976 26.8456 102.256 26.0562C103.557 25.2669 105.093 24.8722 106.864 24.8722C108.571 24.8722 110.053 25.2562 111.312 26.0242C112.592 26.7709 113.531 27.7736 114.128 29.0322L110.704 30.1202C110.32 29.4162 109.776 28.8722 109.072 28.4882C108.389 28.0829 107.632 27.8802 106.8 27.8802C105.861 27.8802 105.008 28.1256 104.24 28.6162C103.493 29.0856 102.896 29.7469 102.448 30.6002C102.021 31.4322 101.808 32.4029 101.808 33.5122C101.808 34.5789 102.032 35.5496 102.48 36.4242C102.928 37.2776 103.525 37.9602 104.272 38.4722C105.04 38.9629 105.893 39.2082 106.832 39.2082C107.408 39.2082 107.963 39.1122 108.496 38.9202C109.051 38.7069 109.531 38.4296 109.936 38.0882C110.341 37.7256 110.629 37.3309 110.8 36.9042L114.256 37.9282C113.893 38.7602 113.349 39.4962 112.624 40.1362C111.92 40.7762 111.077 41.2882 110.096 41.6722C109.136 42.0349 108.059 42.2162 106.864 42.2162ZM132.163 41.8962H128.643V32.5202C128.643 31.0056 128.366 29.8749 127.811 29.1282C127.256 28.3816 126.478 28.0082 125.475 28.0082C124.856 28.0082 124.216 28.1789 123.555 28.5202C122.894 28.8616 122.307 29.3309 121.795 29.9282C121.283 30.5042 120.91 31.1762 120.675 31.9442V41.8962H117.155V18.5362H120.675V28.5202C121.315 27.3896 122.19 26.5042 123.299 25.8642C124.408 25.2029 125.603 24.8722 126.883 24.8722C127.928 24.8722 128.792 25.0536 129.475 25.4162C130.158 25.7789 130.691 26.2802 131.075 26.9202C131.48 27.5389 131.758 28.2642 131.907 29.0962C132.078 29.9069 132.163 30.7709 132.163 31.6882V41.8962ZM151.257 41.8962H147.737V32.5202C147.737 30.9629 147.481 29.8216 146.969 29.0962C146.478 28.3709 145.742 28.0082 144.761 28.0082C144.078 28.0082 143.395 28.1789 142.713 28.5202C142.051 28.8616 141.454 29.3309 140.921 29.9282C140.387 30.5042 140.003 31.1762 139.769 31.9442V41.8962H136.249V25.1602H139.449V28.5202C139.875 27.7736 140.43 27.1336 141.113 26.6002C141.817 26.0456 142.606 25.6189 143.481 25.3202C144.355 25.0216 145.283 24.8722 146.265 24.8722C147.267 24.8722 148.089 25.0536 148.729 25.4162C149.39 25.7789 149.902 26.2802 150.265 26.9202C150.649 27.5389 150.905 28.2642 151.033 29.0962C151.182 29.9069 151.257 30.7709 151.257 31.6882V41.8962ZM162.862 42.2162C161.54 42.2162 160.356 41.9922 159.31 41.5442C158.265 41.0749 157.358 40.4349 156.59 39.6242C155.844 38.8136 155.268 37.8962 154.862 36.8722C154.457 35.8269 154.254 34.7176 154.254 33.5442C154.254 32.3709 154.457 31.2616 154.862 30.2162C155.268 29.1709 155.844 28.2536 156.59 27.4642C157.358 26.6536 158.265 26.0242 159.31 25.5762C160.377 25.1069 161.561 24.8722 162.862 24.8722C164.164 24.8722 165.337 25.1069 166.382 25.5762C167.449 26.0242 168.356 26.6536 169.102 27.4642C169.87 28.2536 170.457 29.1709 170.862 30.2162C171.268 31.2616 171.47 32.3709 171.47 33.5442C171.47 34.7176 171.268 35.8269 170.862 36.8722C170.457 37.8962 169.87 38.8136 169.102 39.6242C168.356 40.4349 167.449 41.0749 166.382 41.5442C165.337 41.9922 164.164 42.2162 162.862 42.2162ZM157.87 33.5762C157.87 34.6429 158.094 35.6029 158.542 36.4562C158.99 37.3096 159.588 37.9816 160.334 38.4722C161.081 38.9629 161.924 39.2082 162.862 39.2082C163.78 39.2082 164.612 38.9629 165.358 38.4722C166.126 37.9602 166.734 37.2776 167.182 36.4242C167.63 35.5496 167.854 34.5896 167.854 33.5442C167.854 32.4776 167.63 31.5176 167.182 30.6642C166.734 29.8109 166.126 29.1389 165.358 28.6482C164.612 28.1362 163.78 27.8802 162.862 27.8802C161.924 27.8802 161.081 28.1362 160.334 28.6482C159.588 29.1602 158.99 29.8429 158.542 30.6962C158.094 31.5282 157.87 32.4882 157.87 33.5762Z" fill="#1D2BCA"/>
<path d="M186.24 41.8962L180.864 34.1842L178.112 36.8082V41.8962H174.592V18.5362H178.112V33.2562L185.856 25.1922H189.632L183.136 32.2002L189.984 41.8962H186.24ZM201.532 28.2002C200.166 28.2216 198.95 28.5309 197.884 29.1282C196.838 29.7256 196.092 30.5682 195.644 31.6562V41.8962H192.124V25.1602H195.388V28.9042C195.964 27.7522 196.721 26.8349 197.66 26.1522C198.598 25.4482 199.59 25.0642 200.636 25.0002C200.849 25.0002 201.02 25.0002 201.148 25.0002C201.297 25.0002 201.425 25.0109 201.532 25.0322V28.2002ZM202.845 37.0002C202.845 35.9336 203.144 35.0056 203.741 34.2162C204.36 33.4056 205.203 32.7869 206.269 32.3602C207.336 31.9122 208.573 31.6882 209.981 31.6882C210.728 31.6882 211.485 31.7416 212.253 31.8482C213.043 31.9549 213.736 32.1256 214.333 32.3602V31.3042C214.333 30.1309 213.981 29.2136 213.277 28.5522C212.573 27.8909 211.56 27.5602 210.237 27.5602C209.299 27.5602 208.413 27.7309 207.581 28.0722C206.749 28.3922 205.864 28.8509 204.925 29.4482L203.741 27.0802C204.851 26.3336 205.96 25.7789 207.069 25.4162C208.2 25.0536 209.384 24.8722 210.621 24.8722C212.861 24.8722 214.621 25.4696 215.901 26.6642C217.203 27.8376 217.853 29.5122 217.853 31.6882V37.9282C217.853 38.3336 217.917 38.6216 218.045 38.7922C218.195 38.9629 218.44 39.0589 218.781 39.0802V41.8962C218.461 41.9602 218.173 42.0029 217.917 42.0242C217.661 42.0456 217.448 42.0562 217.277 42.0562C216.531 42.0562 215.965 41.8749 215.581 41.5122C215.197 41.1496 214.973 40.7229 214.909 40.2322L214.813 39.2722C214.088 40.2109 213.16 40.9362 212.029 41.4482C210.899 41.9602 209.757 42.2162 208.605 42.2162C207.496 42.2162 206.504 41.9922 205.629 41.5442C204.755 41.0749 204.072 40.4456 203.581 39.6562C203.091 38.8669 202.845 37.9816 202.845 37.0002ZM213.501 38.0242C213.757 37.7469 213.96 37.4696 214.109 37.1922C214.259 36.9149 214.333 36.6696 214.333 36.4562V34.5362C213.736 34.3016 213.107 34.1309 212.445 34.0242C211.784 33.8962 211.133 33.8322 210.493 33.8322C209.213 33.8322 208.168 34.0882 207.357 34.6002C206.568 35.1122 206.173 35.8162 206.173 36.7122C206.173 37.2029 206.301 37.6722 206.557 38.1202C206.835 38.5682 207.219 38.9309 207.709 39.2082C208.221 39.4856 208.851 39.6242 209.597 39.6242C210.365 39.6242 211.101 39.4749 211.805 39.1762C212.509 38.8776 213.075 38.4936 213.501 38.0242ZM224.108 25.1602L228.076 30.8882L228.364 31.4322L228.652 30.8882L232.588 25.1602H236.396L230.38 33.5442L236.46 41.8962H232.652L228.652 36.2002L228.364 35.6882L228.076 36.2002L224.076 41.8962H220.268L226.348 33.5762L220.332 25.1602H224.108Z" fill="#F8990C"/>
</svg>
