<svg width="48" height="48" viewBox="0 0 48 48" fill="none" xmlns="http://www.w3.org/2000/svg">
<path d="M33.9705 27.5851V26.0941C33.9705 25.5179 33.7416 24.9654 33.3342 24.558C32.9268 24.1506 32.3743 23.9217 31.7981 23.9217C31.222 23.9217 30.6694 24.1506 30.262 24.558C29.8546 24.9654 29.6258 25.5179 29.6258 26.0941V23.4533C29.6297 22.8774 29.4047 22.3234 29.0002 21.9134C28.5957 21.5034 28.0449 21.2708 27.4689 21.2669C26.893 21.2629 26.3391 21.488 25.929 21.8925C25.519 22.2969 25.2864 22.8477 25.2825 23.4237V21.9207C25.2825 21.3443 25.0536 20.7916 24.646 20.3841C24.2385 19.9765 23.6857 19.7476 23.1094 19.7476C22.533 19.7476 21.9803 19.9765 21.5727 20.3841C21.1652 20.7916 20.9363 21.3443 20.9363 21.9207V23.4544C20.9363 22.8781 20.7073 22.3253 20.2998 21.9178C19.8922 21.5103 19.3395 21.2813 18.7631 21.2813C18.1868 21.2813 17.634 21.5103 17.2265 21.9178C16.819 22.3253 16.59 22.8781 16.59 23.4544V27.5851H16.0988C15.5836 27.5852 15.0896 27.7898 14.7253 28.1541C14.361 28.5184 14.1564 29.0124 14.1563 29.5276V33.8213C14.155 35.1233 14.4729 36.4057 15.0822 37.5563C15.6915 38.707 16.5736 39.6907 17.6513 40.4213C18.0794 40.7217 18.428 41.1217 18.6671 41.5869C18.9062 42.052 19.0286 42.5683 19.0238 43.0913V45.2626H29.1V43.0913C29.0951 42.5679 29.2179 42.0512 29.4577 41.586C29.6975 41.1207 30.0471 40.721 30.4763 40.4213C31.5539 39.6907 32.436 38.707 33.0453 37.5563C33.6546 36.4057 33.9725 35.1233 33.9713 33.8213V27.5851H33.9705Z" fill="#CDE0F1"/>
<path d="M34.9078 26.0942C34.9084 25.5775 34.7801 25.0688 34.5346 24.6142C34.289 24.1596 33.9339 23.7734 33.5015 23.4906C33.0691 23.2078 32.5729 23.0374 32.058 22.9947C31.5431 22.952 31.0256 23.0384 30.5525 23.2461C30.5186 22.7267 30.3546 22.2242 30.0756 21.7847C29.7967 21.3452 29.4118 20.9829 28.9563 20.7311C28.5008 20.4792 27.9892 20.3459 27.4687 20.3434C26.9482 20.3409 26.4355 20.4693 25.9775 20.7167C25.7407 20.1513 25.342 19.6684 24.8316 19.3289C24.3212 18.9893 23.7218 18.8081 23.1088 18.8081C22.4957 18.8081 21.8963 18.9893 21.3859 19.3289C20.8755 19.6684 20.4769 20.1513 20.24 20.7167C19.7662 20.4605 19.2339 20.3318 18.6954 20.3432C18.1568 20.3545 17.6305 20.5056 17.1679 20.7816C16.7053 21.0576 16.3223 21.449 16.0565 21.9175C15.7907 22.386 15.6511 22.9156 15.6515 23.4542V26.6852C14.9741 26.792 14.3569 27.1368 13.9108 27.6577C13.4648 28.1787 13.219 28.8415 13.2178 29.5273V33.8211C13.2174 35.2751 13.5727 36.7072 14.2529 37.9924C14.933 39.2776 15.9172 40.3768 17.1196 41.1943C17.4225 41.4084 17.6687 41.6929 17.8369 42.0234C18.0051 42.3538 18.0904 42.7203 18.0853 43.0911V45.2623C18.0853 45.511 18.184 45.7494 18.3599 45.9253C18.5357 46.1011 18.7741 46.1998 19.0228 46.1998H29.0998C29.3484 46.1998 29.5869 46.1011 29.7627 45.9253C29.9385 45.7494 30.0373 45.511 30.0373 45.2623V43.0911C30.0322 42.7205 30.1175 42.3543 30.2858 42.0241C30.4541 41.694 30.7004 41.4098 31.0033 41.1962C32.2066 40.3789 33.1916 39.2795 33.8723 37.9939C34.5531 36.7084 34.9088 35.2758 34.9085 33.8211V27.5848V27.5792L34.9078 26.0942ZM31.7998 24.859C32.1271 24.8597 32.4409 24.99 32.6723 25.2216C32.9038 25.4531 33.0341 25.7669 33.0346 26.0942V31.7743C33.0344 32.0563 32.9222 32.3266 32.7228 32.526C32.5234 32.7254 32.2531 32.8375 31.9711 32.8378H31.6288C31.4889 32.838 31.3504 32.8107 31.2211 32.7574C31.0918 32.704 30.9743 32.6257 30.8753 32.527C30.7762 32.4282 30.6976 32.3109 30.6439 32.1818C30.5902 32.0527 30.5625 31.9142 30.5623 31.7743V26.0942C30.5629 25.7664 30.6935 25.4522 30.9255 25.2206C31.1575 24.989 31.472 24.859 31.7998 24.859ZM27.4531 22.2182C27.7803 22.2191 28.0938 22.3495 28.3251 22.5809C28.5564 22.8123 28.6866 23.1259 28.6873 23.4531V29.1336C28.687 29.4156 28.5748 29.6859 28.3755 29.8853C28.1761 30.0847 27.9057 30.1968 27.6238 30.1971H27.2814C26.9994 30.1968 26.729 30.0847 26.5296 29.8853C26.3301 29.6859 26.2179 29.4156 26.2175 29.1336V27.5998C26.2175 27.595 26.2175 27.5905 26.2175 27.5856V23.4373C26.2218 23.1125 26.3538 22.8024 26.5851 22.5742C26.8164 22.346 27.1282 22.2181 27.4531 22.2182ZM21.8735 21.9205C21.8909 21.6045 22.0287 21.3073 22.2585 21.0898C22.4883 20.8723 22.7927 20.7511 23.1091 20.7511C23.4256 20.7511 23.73 20.8723 23.9598 21.0898C24.1896 21.3073 24.3274 21.6045 24.3448 21.9205V23.4242C24.3448 23.434 24.3448 23.4433 24.3448 23.4531V26.6466H21.8735V21.9216V21.9205ZM18.761 22.2205C19.0892 22.2205 19.404 22.3508 19.6361 22.5829C19.8681 22.815 19.9985 23.1298 19.9985 23.458V26.6473H17.5273V23.4542C17.5278 23.1267 17.6581 22.8127 17.8897 22.581C18.1213 22.3494 18.4353 22.2191 18.7629 22.2186L18.761 22.2205ZM29.945 39.6493C29.3904 40.0348 28.9381 40.5497 28.6275 41.1495C28.3168 41.7492 28.1571 42.4157 28.1623 43.0911V44.3248H19.961V43.0911C19.9659 42.4153 19.8061 41.7484 19.4955 41.1482C19.1849 40.5479 18.7328 40.0323 18.1783 39.646C17.2278 39.0005 16.4498 38.1322 15.9121 37.1168C15.3744 36.1015 15.0934 34.97 15.0935 33.8211V29.5273C15.0938 29.2609 15.1998 29.0054 15.3882 28.817C15.5766 28.6286 15.8321 28.5226 16.0985 28.5223H20.8584C20.8846 28.5223 20.9094 28.5298 20.936 28.5298C20.9626 28.5298 20.9859 28.5242 21.011 28.5223H24.311C24.1738 30.0748 23.4425 30.9373 19.7499 30.9373C19.5013 30.9373 19.2628 31.0361 19.087 31.2119C18.9112 31.3877 18.8124 31.6262 18.8124 31.8748C18.8124 32.1235 18.9112 32.3619 19.087 32.5378C19.2628 32.7136 19.5013 32.8123 19.7499 32.8123C20.5374 32.8123 23.108 33.2098 23.108 38.3211C23.108 38.5697 23.2068 38.8082 23.3826 38.984C23.5584 39.1598 23.7969 39.2586 24.0455 39.2586C24.2942 39.2586 24.5326 39.1598 24.7084 38.984C24.8843 38.8082 24.983 38.5697 24.983 38.3211C24.983 35.473 24.2131 33.5848 23.1331 32.4313C23.9261 32.2323 24.6423 31.8027 25.1911 31.1968C25.4639 31.4747 25.7893 31.6954 26.1483 31.846C26.5073 31.9966 26.8928 32.0741 27.2821 32.074H27.6245C27.9903 32.0736 28.3527 32.0044 28.6929 31.87C28.7176 32.632 29.0374 33.3547 29.5848 33.8855C30.1322 34.4162 30.8644 34.7136 31.6269 34.7147H31.9693C32.3197 34.7143 32.6673 34.6507 32.9953 34.5272C32.8924 35.5516 32.5661 36.541 32.0394 37.4257C31.5127 38.3104 30.7984 39.0688 29.9469 39.6475L29.945 39.6493Z" fill="#1D2BCA"/>
<path d="M37.0767 38.8648C36.791 38.8661 36.5116 38.7803 36.2758 38.6188C36.0399 38.4574 35.8589 38.228 35.7567 37.9611C36.3122 36.6516 36.5979 35.2435 36.5967 33.8211V26.0923C36.595 24.8208 36.0891 23.6019 35.19 22.7028C34.2909 21.8037 33.072 21.2978 31.8005 21.2961H31.7405C31.2822 20.3833 30.5441 19.6411 29.634 19.1776C28.7239 18.7141 27.6895 18.5537 26.6817 18.7198C26.2322 18.2172 25.6818 17.8152 25.0663 17.5399C24.4508 17.2647 23.7841 17.1224 23.1099 17.1224C22.4356 17.1224 21.769 17.2647 21.1535 17.5399C20.538 17.8152 19.9875 18.2172 19.538 18.7198C18.8516 18.6067 18.1488 18.6444 17.4785 18.8302C16.8081 19.016 16.1862 19.3455 15.656 19.7958C15.1257 20.2461 14.6999 20.8064 14.408 21.4378C14.116 22.0693 13.9651 22.7567 13.9655 23.4523V25.4886C13.2314 25.8774 12.617 26.4587 12.1882 27.1702C11.7594 27.8817 11.5325 28.6966 11.5317 29.5273V33.8211C11.5306 35.2435 11.8163 36.6516 12.3717 37.9611C12.2685 38.2272 12.0872 38.456 11.8516 38.6173C11.6161 38.7785 11.3372 38.8648 11.0517 38.8648H10.1405C10.1405 38.8648 0.236738 27.7086 9.52549 12.9973C9.52549 12.9973 10.4442 19.0273 14.4605 19.4586C11.2955 12.8548 17.2805 6.7723 23.2805 2.7373C24.7467 9.79105 33.713 12.5623 34.0355 17.9286C35.7117 14.8648 37.508 14.1148 37.8155 11.3698C40.7855 14.6736 46.9317 30.7536 37.0767 38.8648Z" fill="#F4C855"/>
<path d="M37.5309 10.477C37.3588 10.5321 37.2063 10.6358 37.0917 10.7755C36.9772 10.9152 36.9054 11.085 36.8851 11.2645C36.7265 12.6708 36.1276 13.4227 35.2209 14.5608C34.9584 14.8908 34.6794 15.2403 34.3936 15.6299C33.5142 13.7272 31.763 12.1345 29.939 10.4744C27.458 8.21616 24.8922 5.88141 24.1989 2.54729C24.1675 2.39679 24.0997 2.2563 24.0013 2.1382C23.9029 2.02009 23.777 1.928 23.6346 1.87002C23.4922 1.81204 23.3378 1.78996 23.1849 1.80572C23.032 1.82149 22.8853 1.87461 22.7577 1.96041C15.0181 7.16429 11.6476 12.5999 12.8802 17.8023C11.0052 16.2697 10.4574 12.8973 10.451 12.8557C10.4222 12.6668 10.3363 12.4912 10.205 12.3525C10.0736 12.2138 9.90298 12.1185 9.71596 12.0794C9.52894 12.0403 9.33444 12.0593 9.15852 12.1339C8.9826 12.2084 8.83365 12.3349 8.73161 12.4964C3.75049 20.3887 4.19561 27.2999 5.44736 31.7047C6.226 34.5468 7.58507 37.1967 9.43886 39.4874C9.60437 39.6712 9.83582 39.7822 10.0828 39.7961C10.3297 39.81 10.5722 39.7258 10.7573 39.5617C10.9424 39.3977 11.0552 39.1671 11.0711 38.9203C11.087 38.6735 11.0047 38.4303 10.8421 38.2439C10.4757 37.8284 2.34461 28.3567 9.20336 15.4147C9.92936 17.4254 11.4335 20.0774 14.363 20.3917C14.529 20.4095 14.6968 20.3827 14.849 20.3139C15.0012 20.2451 15.1323 20.137 15.2287 20.0006C15.3251 19.8642 15.3833 19.7046 15.3973 19.5382C15.4113 19.3718 15.3806 19.2046 15.3084 19.054C12.5551 13.3105 17.5719 7.95404 22.7334 4.25879C23.8602 7.47704 26.4027 9.79041 28.6775 11.8608C30.9785 13.9548 32.9656 15.7634 33.0995 17.9845C33.1117 18.1876 33.1897 18.3811 33.3215 18.536C33.4534 18.6909 33.6321 18.7986 33.8306 18.843C34.0291 18.8875 34.2367 18.8661 34.422 18.7822C34.6073 18.6983 34.7603 18.5564 34.8579 18.3779C35.3856 17.4409 35.9982 16.5541 36.6879 15.7289C37.2694 15.0542 37.7693 14.3132 38.177 13.5213C39.9091 16.5295 41.879 22.3165 41.4564 27.9397C41.132 32.2593 39.458 35.6924 36.482 38.1427C36.3836 38.2198 36.3015 38.3158 36.2408 38.425C36.18 38.5343 36.1417 38.6546 36.1281 38.7789C36.1145 38.9032 36.126 39.029 36.1617 39.1488C36.1975 39.2686 36.2568 39.3801 36.3363 39.4766C36.4158 39.5731 36.5137 39.6528 36.6245 39.7109C36.7352 39.769 36.8564 39.8043 36.981 39.8149C37.1056 39.8254 37.231 39.8109 37.3499 39.7723C37.4688 39.7336 37.5788 39.6716 37.6734 39.5898C41.06 36.802 42.9609 32.9294 43.3261 28.0803C43.9062 20.3617 40.4206 12.8643 38.5145 10.7429C38.3936 10.6085 38.2365 10.5119 38.0619 10.4647C37.8874 10.4175 37.703 10.4218 37.5309 10.477Z" fill="#3D6DB5"/>
</svg>
