<svg width="48" height="48" viewBox="0 0 48 48" fill="none" xmlns="http://www.w3.org/2000/svg">
<g clip-path="url(#clip0_277_791)">
<mask id="path-1-inside-1_277_791" fill="white">
<path d="M46.9267 21.6817L42.8265 20.3262C42.6582 19.4558 42.4292 18.5984 42.1411 17.7601L45.0201 14.5316L44.7388 13.9527C44.2505 12.9482 43.6903 11.9803 43.0627 11.0564L42.7017 10.5255L38.4864 11.403C37.9006 10.7304 37.2693 10.0989 36.5971 9.51272L37.4736 5.29736L36.9427 4.9364C36.0184 4.30829 35.0498 3.7481 34.0444 3.26024L33.4665 2.98088L30.24 5.85992C29.4015 5.5723 28.5441 5.34326 27.6739 5.17448L26.3184 1.07432L25.678 1.02728C24.5608 0.946637 23.4391 0.946637 22.3219 1.02728L21.6816 1.07336L20.326 5.17448C19.4563 5.34344 18.5961 5.57288 17.76 5.85992L14.5315 2.98088L13.9526 3.26216C12.9481 3.75047 11.9801 4.31065 11.0563 4.93832L10.5264 5.29928L11.4038 9.51464C10.7313 10.1004 10.0997 10.7317 9.51356 11.4039L5.29916 10.5265L4.9382 11.0574C4.31009 11.9816 3.7499 12.9502 3.26204 13.9556L2.98268 14.5335L5.8598 17.7601C5.57218 18.5985 5.34315 19.456 5.17436 20.3262L1.0742 21.6817L1.02716 22.322C0.986841 22.8778 0.959961 23.4346 0.959961 24.0001C0.959961 24.5655 0.986841 25.1223 1.02716 25.6782L1.07324 26.3185L5.1734 27.674C5.34236 28.5466 5.5718 29.4058 5.85884 30.2401L2.9798 33.4686L3.26108 34.0474C3.7494 35.0519 4.30957 36.0199 4.93724 36.9438L5.2982 37.4746L9.51356 36.5972C10.0994 37.2697 10.7306 37.9013 11.4028 38.4874L10.5264 42.7028L11.0572 43.0638C11.9815 43.6919 12.9501 44.2521 13.9555 44.7399L14.5334 45.0193L17.7609 42.1422C18.5971 42.4292 19.4563 42.6586 20.327 42.8276L21.6825 46.9278L22.3228 46.9738C22.8777 47.0132 23.4345 47.0401 24 47.0401C24.5654 47.0401 25.1222 47.0132 25.678 46.9729L26.3184 46.9268L27.6739 42.8266C28.5442 42.6583 29.4016 42.4293 30.24 42.1412L33.4684 45.0202L34.0473 44.739C35.0518 44.2506 36.0198 43.6905 36.9436 43.0628L37.4745 42.7018L36.5971 38.4865C37.2696 37.9007 37.9012 37.2694 38.4873 36.5972L42.7027 37.4737L43.0636 36.9428C43.6918 36.0185 44.2519 35.0499 44.7398 34.0446L45.0192 33.4666L42.1401 30.2401C42.4272 29.4039 42.6566 28.5438 42.8256 27.674L46.9257 26.3185L46.9718 25.6782C47.0131 25.1223 47.04 24.5655 47.04 24.0001C47.04 23.4346 47.0131 22.8778 46.9728 22.322L46.9267 21.6817ZM45.0969 24.9006L41.1273 26.2129L41.0332 26.7879C40.8496 27.9231 40.5521 29.0369 40.1452 30.1124L39.9398 30.6558L42.7219 33.7777C42.4464 34.3057 42.1449 34.825 41.8233 35.33L37.7462 34.4814L37.3776 34.9326C36.6448 35.8268 35.8251 36.6462 34.9305 37.3786L34.4793 37.7473L35.3289 41.8244C34.8249 42.145 34.3065 42.4455 33.7766 42.7239L30.6547 39.9399L30.1104 40.1473C29.0448 40.5514 27.9264 40.849 26.7868 41.0343L26.2118 41.1284L24.8995 45.098C24.3033 45.1278 23.6937 45.1278 23.0976 45.098L21.7852 41.1284L21.2102 41.0343C20.0753 40.8511 18.9618 40.5535 17.8867 40.1463L17.3424 39.9399L14.2204 42.723C13.6904 42.4458 13.1724 42.146 12.6681 41.8244L13.5168 37.7473L13.0656 37.3786C12.1713 36.6458 11.3519 35.8261 10.6195 34.9316L10.2508 34.4804L6.17372 35.33C5.85258 34.8252 5.55248 34.3073 5.2742 33.7777L8.0582 30.6558L7.85084 30.1114C7.44453 29.0361 7.14736 27.9227 6.9638 26.7879L6.86972 26.2129L2.90012 24.9006C2.87205 24.3005 2.87301 23.6995 2.903 23.0996L6.8726 21.7873L6.96668 21.2122C7.14994 20.0773 7.44745 18.9638 7.85468 17.8887L8.06108 17.3444L5.27804 14.2225C5.55356 13.6945 5.855 13.1751 6.1766 12.6702L10.2537 13.5188L10.6224 13.0676C11.3552 12.1733 12.1749 11.354 13.0694 10.6215L13.5206 10.2529L12.671 6.17576C13.1758 5.85461 13.6937 5.55451 14.2233 5.27624L17.3452 8.05928L17.8886 7.85384C18.9643 7.44739 20.078 7.1499 21.2131 6.96584L21.7881 6.87176L23.1004 2.90216C23.7007 2.8724 24.3021 2.8724 24.9024 2.90216L26.2147 6.87176L26.7897 6.96584C27.9247 7.14909 29.0382 7.4466 30.1132 7.85384L30.6576 8.06024L33.7795 5.2772C34.3075 5.55272 34.8268 5.85416 35.3318 6.17576L34.4832 10.2529L34.9344 10.6215C35.8252 11.3511 36.648 12.1738 37.3804 13.0686L37.7491 13.5198L41.8262 12.6702C42.1468 13.1742 42.4473 13.6926 42.7257 14.2225L39.9417 17.3444L40.1491 17.8887C40.5532 18.9543 40.8508 20.0727 41.0361 21.2122L41.1302 21.7873L45.0998 23.0996C45.1279 23.6996 45.1269 24.3006 45.0969 24.9006Z"/>
</mask>
<path d="M46.9267 21.6817L42.8265 20.3262C42.6582 19.4558 42.4292 18.5984 42.1411 17.7601L45.0201 14.5316L44.7388 13.9527C44.2505 12.9482 43.6903 11.9803 43.0627 11.0564L42.7017 10.5255L38.4864 11.403C37.9006 10.7304 37.2693 10.0989 36.5971 9.51272L37.4736 5.29736L36.9427 4.9364C36.0184 4.30829 35.0498 3.7481 34.0444 3.26024L33.4665 2.98088L30.24 5.85992C29.4015 5.5723 28.5441 5.34326 27.6739 5.17448L26.3184 1.07432L25.678 1.02728C24.5608 0.946637 23.4391 0.946637 22.3219 1.02728L21.6816 1.07336L20.326 5.17448C19.4563 5.34344 18.5961 5.57288 17.76 5.85992L14.5315 2.98088L13.9526 3.26216C12.9481 3.75047 11.9801 4.31065 11.0563 4.93832L10.5264 5.29928L11.4038 9.51464C10.7313 10.1004 10.0997 10.7317 9.51356 11.4039L5.29916 10.5265L4.9382 11.0574C4.31009 11.9816 3.7499 12.9502 3.26204 13.9556L2.98268 14.5335L5.8598 17.7601C5.57218 18.5985 5.34315 19.456 5.17436 20.3262L1.0742 21.6817L1.02716 22.322C0.986841 22.8778 0.959961 23.4346 0.959961 24.0001C0.959961 24.5655 0.986841 25.1223 1.02716 25.6782L1.07324 26.3185L5.1734 27.674C5.34236 28.5466 5.5718 29.4058 5.85884 30.2401L2.9798 33.4686L3.26108 34.0474C3.7494 35.0519 4.30957 36.0199 4.93724 36.9438L5.2982 37.4746L9.51356 36.5972C10.0994 37.2697 10.7306 37.9013 11.4028 38.4874L10.5264 42.7028L11.0572 43.0638C11.9815 43.6919 12.9501 44.2521 13.9555 44.7399L14.5334 45.0193L17.7609 42.1422C18.5971 42.4292 19.4563 42.6586 20.327 42.8276L21.6825 46.9278L22.3228 46.9738C22.8777 47.0132 23.4345 47.0401 24 47.0401C24.5654 47.0401 25.1222 47.0132 25.678 46.9729L26.3184 46.9268L27.6739 42.8266C28.5442 42.6583 29.4016 42.4293 30.24 42.1412L33.4684 45.0202L34.0473 44.739C35.0518 44.2506 36.0198 43.6905 36.9436 43.0628L37.4745 42.7018L36.5971 38.4865C37.2696 37.9007 37.9012 37.2694 38.4873 36.5972L42.7027 37.4737L43.0636 36.9428C43.6918 36.0185 44.2519 35.0499 44.7398 34.0446L45.0192 33.4666L42.1401 30.2401C42.4272 29.4039 42.6566 28.5438 42.8256 27.674L46.9257 26.3185L46.9718 25.6782C47.0131 25.1223 47.04 24.5655 47.04 24.0001C47.04 23.4346 47.0131 22.8778 46.9728 22.322L46.9267 21.6817ZM45.0969 24.9006L41.1273 26.2129L41.0332 26.7879C40.8496 27.9231 40.5521 29.0369 40.1452 30.1124L39.9398 30.6558L42.7219 33.7777C42.4464 34.3057 42.1449 34.825 41.8233 35.33L37.7462 34.4814L37.3776 34.9326C36.6448 35.8268 35.8251 36.6462 34.9305 37.3786L34.4793 37.7473L35.3289 41.8244C34.8249 42.145 34.3065 42.4455 33.7766 42.7239L30.6547 39.9399L30.1104 40.1473C29.0448 40.5514 27.9264 40.849 26.7868 41.0343L26.2118 41.1284L24.8995 45.098C24.3033 45.1278 23.6937 45.1278 23.0976 45.098L21.7852 41.1284L21.2102 41.0343C20.0753 40.8511 18.9618 40.5535 17.8867 40.1463L17.3424 39.9399L14.2204 42.723C13.6904 42.4458 13.1724 42.146 12.6681 41.8244L13.5168 37.7473L13.0656 37.3786C12.1713 36.6458 11.3519 35.8261 10.6195 34.9316L10.2508 34.4804L6.17372 35.33C5.85258 34.8252 5.55248 34.3073 5.2742 33.7777L8.0582 30.6558L7.85084 30.1114C7.44453 29.0361 7.14736 27.9227 6.9638 26.7879L6.86972 26.2129L2.90012 24.9006C2.87205 24.3005 2.87301 23.6995 2.903 23.0996L6.8726 21.7873L6.96668 21.2122C7.14994 20.0773 7.44745 18.9638 7.85468 17.8887L8.06108 17.3444L5.27804 14.2225C5.55356 13.6945 5.855 13.1751 6.1766 12.6702L10.2537 13.5188L10.6224 13.0676C11.3552 12.1733 12.1749 11.354 13.0694 10.6215L13.5206 10.2529L12.671 6.17576C13.1758 5.85461 13.6937 5.55451 14.2233 5.27624L17.3452 8.05928L17.8886 7.85384C18.9643 7.44739 20.078 7.1499 21.2131 6.96584L21.7881 6.87176L23.1004 2.90216C23.7007 2.8724 24.3021 2.8724 24.9024 2.90216L26.2147 6.87176L26.7897 6.96584C27.9247 7.14909 29.0382 7.4466 30.1132 7.85384L30.6576 8.06024L33.7795 5.2772C34.3075 5.55272 34.8268 5.85416 35.3318 6.17576L34.4832 10.2529L34.9344 10.6215C35.8252 11.3511 36.648 12.1738 37.3804 13.0686L37.7491 13.5198L41.8262 12.6702C42.1468 13.1742 42.4473 13.6926 42.7257 14.2225L39.9417 17.3444L40.1491 17.8887C40.5532 18.9543 40.8508 20.0727 41.0361 21.2122L41.1302 21.7873L45.0998 23.0996C45.1279 23.6996 45.1269 24.3006 45.0969 24.9006Z" fill="#EFAC00" stroke="#EFAC00" stroke-width="20" mask="url(#path-1-inside-1_277_791)"/>
<path d="M23.7206 10.5637C18.7392 10.7048 14.5603 14.8722 14.4057 19.8536C14.358 21.2801 14.6306 22.6991 15.2034 24.0064C15.7762 25.3137 16.6347 26.476 17.7158 27.4079C19.2691 28.7519 20.16 30.6344 20.16 32.6399V37.4399H23.04V39.3599H24.96V37.4399H27.84V32.5746C27.84 30.6546 28.7491 28.7547 30.335 27.3637C31.3604 26.4643 32.182 25.3565 32.745 24.1142C33.3081 22.8719 33.5995 21.5238 33.6 20.1599C33.6044 18.8753 33.3489 17.6031 32.8488 16.4199C32.3488 15.2367 31.6145 14.1668 30.6902 13.2747C28.8144 11.4517 26.3318 10.5167 23.7206 10.5637ZM25.92 35.5199H22.08V33.5999H25.92V35.5199ZM29.0688 25.9199C27.3216 27.4539 26.2243 29.4968 25.9747 31.6799H24.96V22.4773L27.5587 19.8786L26.2012 18.5211L24 20.7224L21.7987 18.5211L20.4412 19.8786L23.04 22.4773V31.6799H22.032C21.7968 29.5093 20.711 27.4607 18.9715 25.9563C18.1068 25.2107 17.4202 24.2809 16.962 23.2351C16.5038 22.1894 16.2858 21.0542 16.3238 19.9131C16.4476 15.9291 19.7894 12.596 23.7744 12.4837C25.8748 12.4117 27.8505 13.1922 29.352 14.6514C30.0915 15.3651 30.679 16.221 31.079 17.1677C31.4791 18.1143 31.6835 19.1321 31.68 20.1599C31.6796 21.2505 31.4464 22.3284 30.9961 23.3217C30.5458 24.315 29.8888 25.2008 29.0688 25.9199Z" fill="#1D2BCA"/>
</g>
<defs>
<clipPath id="clip0_277_791">
<rect width="48" height="48" fill="white"/>
</clipPath>
</defs>
</svg>
