<svg width="48" height="48" viewBox="0 0 48 48" fill="none" xmlns="http://www.w3.org/2000/svg">
<path d="M24 23.9063C26.3641 23.9063 28.6751 23.2052 30.6408 21.8918C32.6065 20.5784 34.1385 18.7115 35.0432 16.5274C35.948 14.3432 36.1847 11.9399 35.7234 9.62119C35.2622 7.30251 34.1238 5.17267 32.4521 3.50099C30.7805 1.82932 28.6506 0.690895 26.3319 0.229681C24.0133 -0.231533 21.6099 0.00517911 19.4257 0.909883C17.2416 1.81459 15.3748 3.34665 14.0613 5.31233C12.7479 7.27801 12.0469 9.58903 12.0469 11.9531C12.0506 15.1222 13.3111 18.1603 15.552 20.4012C17.7928 22.642 20.831 23.9025 24 23.9063ZM13.5797 13.5844L13.995 13.2984C14.2433 13.1273 14.5483 13.0594 14.8458 13.109C15.1432 13.1587 15.4096 13.3221 15.5887 13.5647C15.8102 13.8648 16.0943 14.1131 16.4213 14.2924C16.7484 14.4718 17.1105 14.5778 17.4826 14.6032C17.8547 14.6286 18.2278 14.5728 18.5762 14.4396C18.9246 14.3064 19.2398 14.0991 19.5 13.8319L19.8337 13.4906C19.9564 13.3654 20.1057 13.2695 20.2706 13.21C20.4355 13.1505 20.6116 13.129 20.786 13.147C20.9603 13.165 21.1284 13.2221 21.2776 13.3141C21.4268 13.406 21.5534 13.5305 21.6478 13.6781L21.7191 13.7878C21.8151 13.9385 21.8754 14.1092 21.8954 14.2868C21.9154 14.4644 21.8945 14.6442 21.8344 14.8125L20.4159 18.7697C20.281 19.1463 20.2357 19.5491 20.2838 19.9463L20.5209 21.915C18.7199 21.282 17.1237 20.1734 15.9017 18.7068C14.6796 17.2401 13.8773 15.4701 13.5797 13.5844ZM29.7984 20.7619L28.9134 19.6059C28.78 19.4305 28.7141 19.2129 28.7279 18.9929C28.7417 18.7729 28.8341 18.5652 28.9884 18.4078L29.91 17.4703C30.2106 17.1669 30.4213 16.7861 30.5186 16.3703C30.6159 15.9544 30.5961 15.5197 30.4613 15.1144L29.9475 13.5525C29.8955 13.3902 29.8898 13.2165 29.9313 13.0511C29.9728 12.8858 30.0596 12.7353 30.1821 12.6167C30.3046 12.4981 30.4578 12.4162 30.6244 12.3801C30.791 12.344 30.9644 12.3552 31.125 12.4125L34.4062 13.6313C34.1726 15.0743 33.6421 16.4531 32.8481 17.6805C32.0542 18.9079 31.0141 19.9571 29.7937 20.7619H29.7984ZM29.6138 3.02813C29.3925 3.40782 29.1872 3.76032 29.0147 4.05938C28.9414 4.1861 28.8313 4.28752 28.699 4.35015C28.5667 4.41278 28.4185 4.43366 28.2741 4.41001L27.8325 4.33875C27.3673 4.26493 26.8907 4.34711 26.4771 4.57248C26.0635 4.79786 25.7361 5.15376 25.5459 5.58469L24.93 6.98157C24.8624 7.13348 24.7447 7.25759 24.5966 7.33319C24.4485 7.40879 24.2789 7.4313 24.1162 7.39696C23.9535 7.36262 23.8075 7.27351 23.7026 7.14451C23.5977 7.0155 23.5402 6.85441 23.5397 6.68813V4.3125C23.5397 4.07438 23.5397 3.97876 22.0003 1.59376C24.6282 1.08719 27.3504 1.60004 29.6138 3.02813ZM20.5716 1.97907C21.6778 3.68626 22.0256 4.27032 22.1334 4.46532V6.68344C22.1327 7.20901 22.3264 7.71627 22.6772 8.1076C23.0281 8.49893 23.5112 8.74666 24.0337 8.80313C24.1122 8.81215 24.1911 8.81653 24.27 8.81625C24.683 8.81655 25.0871 8.69635 25.4328 8.47037C25.7785 8.2444 26.0508 7.92248 26.2163 7.54407L26.8322 6.14719C26.897 6.00046 27.0086 5.87932 27.1496 5.80267C27.2905 5.72601 27.4528 5.69816 27.6112 5.72344L28.0528 5.79376C28.4774 5.86298 28.9131 5.8014 29.3019 5.61721C29.6907 5.43302 30.0143 5.13493 30.2297 4.76251L30.7566 3.85876C31.9433 4.84742 32.898 6.08505 33.553 7.48388C34.2081 8.88272 34.5474 10.4085 34.5469 11.9531C34.5469 12.0281 34.5469 12.1031 34.5469 12.1772L31.62 11.0934C31.21 10.9411 30.7653 10.9077 30.3371 10.9972C29.909 11.0867 29.5148 11.2953 29.2002 11.5991C28.8855 11.9029 28.6631 12.2895 28.5586 12.7142C28.4541 13.139 28.4718 13.5846 28.6097 13.9997L29.1216 15.5625C29.1746 15.7222 29.1824 15.8935 29.144 16.0573C29.1056 16.2212 29.0226 16.3711 28.9041 16.4906L27.9825 17.4281C27.5917 17.8281 27.3577 18.3553 27.3233 18.9134C27.2889 19.4716 27.4563 20.0235 27.795 20.4684L28.5619 21.4697C26.5184 22.4505 24.2131 22.7464 21.9881 22.3134L21.6825 19.7822C21.661 19.6021 21.6815 19.4195 21.7425 19.2488L23.1562 15.2813C23.2882 14.9102 23.3336 14.514 23.2891 14.1228C23.2445 13.7315 23.1113 13.3556 22.8994 13.0238L22.8291 12.9131C22.6201 12.5876 22.3403 12.3135 22.0107 12.1111C21.681 11.9087 21.31 11.7833 20.9251 11.7442C20.5403 11.7051 20.1516 11.7533 19.788 11.8852C19.4244 12.0172 19.0952 12.2295 18.825 12.5063L18.4913 12.8475C18.3734 12.9683 18.2308 13.0621 18.0731 13.1223C17.9155 13.1825 17.7466 13.2077 17.5783 13.1962C17.4099 13.1847 17.2461 13.1367 17.0981 13.0557C16.9501 12.9746 16.8215 12.8623 16.7213 12.7266C16.3567 12.2302 15.8254 11.8818 15.2248 11.7453C14.6243 11.6087 13.9946 11.6932 13.4513 11.9831V11.9513C13.4544 9.75518 14.1419 7.61468 15.418 5.82744C16.6941 4.04019 18.4955 2.69504 20.5716 1.97907ZM47.2969 39.5625C47.4834 39.5625 47.6622 39.4884 47.7941 39.3566C47.9259 39.2247 48 39.0459 48 38.8594V36.0469C48 35.8604 47.9259 35.6816 47.7941 35.5497C47.6622 35.4178 47.4834 35.3438 47.2969 35.3438H42.375V33.2344C42.375 33.0479 42.3009 32.8691 42.1691 32.7372C42.0372 32.6053 41.8584 32.5313 41.6719 32.5313H39.5625V30.1875H41.6719C41.8584 30.1875 42.0372 30.1134 42.1691 29.9816C42.3009 29.8497 42.375 29.6709 42.375 29.4844V26.6719C42.375 26.4854 42.3009 26.3066 42.1691 26.1747C42.0372 26.0428 41.8584 25.9688 41.6719 25.9688H2.57812C1.89467 25.9697 1.23949 26.2417 0.756211 26.725C0.272934 27.2082 0.000991956 27.8634 0 28.5469L0 34.1719C0.000991956 34.8553 0.272934 35.5105 0.756211 35.9938C1.23949 36.4771 1.89467 36.749 2.57812 36.75H5.625V45.4219C5.62599 46.1053 5.89793 46.7605 6.38121 47.2438C6.86449 47.7271 7.51967 47.999 8.20312 48H47.2969C47.4834 48 47.6622 47.9259 47.7941 47.7941C47.9259 47.6622 48 47.4834 48 47.2969V44.4844C48 44.2979 47.9259 44.1191 47.7941 43.9872C47.6622 43.8553 47.4834 43.7813 47.2969 43.7813H45.1875V39.5625H47.2969ZM40.9688 33.9375V35.3438H34.875V33.9375H40.9688ZM43.7812 40.9688H37.9219C37.7354 40.9688 37.5566 41.0428 37.4247 41.1747C37.2928 41.3066 37.2188 41.4854 37.2188 41.6719C37.2188 41.8584 37.2928 42.0372 37.4247 42.1691C37.5566 42.3009 37.7354 42.375 37.9219 42.375H43.7812V43.7813H10.7812V42.375H24.9375C25.124 42.375 25.3028 42.3009 25.4347 42.1691C25.5665 42.0372 25.6406 41.8584 25.6406 41.6719C25.6406 41.4854 25.5665 41.3066 25.4347 41.1747C25.3028 41.0428 25.124 40.9688 24.9375 40.9688H10.7812V39.5625H28.7812V41.6719C28.7804 41.7872 28.808 41.901 28.8616 42.0031C28.9152 42.1052 28.9931 42.1926 29.0885 42.2574C29.1838 42.3223 29.2937 42.3627 29.4084 42.375C29.523 42.3874 29.639 42.3712 29.7459 42.3281L31.8281 41.4956L33.9103 42.3281C34.0173 42.3712 34.1332 42.3874 34.2479 42.375C34.3626 42.3627 34.4724 42.3223 34.5678 42.2574C34.6631 42.1926 34.7411 42.1052 34.7946 42.0031C34.8482 41.901 34.8758 41.7872 34.875 41.6719V39.5625H43.7812V40.9688ZM38.1562 32.5313H34.875V30.1875H38.1562V32.5313ZM30.1875 30.1875H33.4688V40.6331L32.0897 40.0819C31.9218 40.0144 31.7344 40.0144 31.5666 40.0819L30.1875 40.6331V30.1875ZM28.7812 32.5313H5.15625V30.1875H28.7812V32.5313ZM6.32812 35.3438H2.57812C2.26748 35.3433 1.96969 35.2196 1.75003 35C1.53037 34.7803 1.40675 34.4825 1.40625 34.1719V28.5469C1.40675 28.2362 1.53037 27.9384 1.75003 27.7188C1.96969 27.4991 2.26748 27.3755 2.57812 27.375H40.9688V28.7813H4.45312C4.26664 28.7813 4.0878 28.8553 3.95594 28.9872C3.82408 29.1191 3.75 29.2979 3.75 29.4844V33.2344C3.75 33.4209 3.82408 33.5997 3.95594 33.7316C4.0878 33.8634 4.26664 33.9375 4.45312 33.9375H28.7812V35.3438H6.32812ZM46.5938 45.1875V46.5938H8.20312C7.89248 46.5933 7.59469 46.4696 7.37503 46.25C7.15537 46.0303 7.03175 45.7325 7.03125 45.4219V36.75H28.7812V38.1563H10.0781C9.89164 38.1563 9.7128 38.2303 9.58094 38.3622C9.44908 38.4941 9.375 38.6729 9.375 38.8594V44.4844C9.375 44.6709 9.44908 44.8497 9.58094 44.9816C9.7128 45.1134 9.89164 45.1875 10.0781 45.1875H46.5938ZM34.875 38.1563V36.75H46.5938V38.1563H34.875Z" fill="#6C6CC4"/>
</svg>
