<svg  width="55px"             height="55px"       xmlns="http://www.w3.org/2000/svg" xmlns:xlink="http://www.w3.org/1999/xlink" version="1.1" x="0px" y="0px" viewBox="0 0 61.969 77.5" style="enable-background:new 0 0 61.969 62;" xml:space="preserve"><g stroke="#000"  >
<path
 d="M28,30h-2c0,1.103-0.897,2-2,2h-6v2h6C26.206,34,28,32.206,28,30z"/>
 <path d="M31,26c1.654,0,3-1.346,3-3s-1.346-3-3-3s-3,1.346-3,3S29.346,26,31,26z M31,22c0.551,0,1,0.449,1,1s-0.449,1-1,1   s-1-0.449-1-1S30.449,22,31,22z"/>
<path d="M60.537,22.423c-0.509-0.302-1.085-0.448-1.68-0.42c-1.112,0.052-2.119,0.758-2.629,1.841L44.861,48h-2.416l-5.723-6.358   c-0.037-0.041-0.079-0.076-0.116-0.116c2.049-1.297,3.622-3.204,4.527-5.414C44.096,34.656,46,31.658,46,28.329   c0-1.722-0.505-3.389-1.46-4.822L44,22.697V15c0-8.271-6.729-15-15-15h-9c-2.02,0-3.806,1.006-4.894,2.541   C14.075,2.186,13.001,2,11.899,2C6.441,2,2,6.441,2,11.899v10.798l-0.54,0.81C0.505,24.94,0,26.607,0,28.329   c0,3.326,1.901,6.322,4.859,7.779c0.74,1.813,1.935,3.428,3.478,4.669C4.51,43.497,2,47.957,2,53c0,2.757,2.243,5,5,5h1v2   c0,1.103,0.897,2,2,2h21c1.654,0,3-1.346,3-3v-7.586l4.083,4.083l0.693-0.866c0.531,0.809,1.205,1.5,2.003,2.046l-0.443,0.938   c-0.679,1.44-0.186,3.179,1.124,3.959c0.47,0.279,1,0.425,1.542,0.425c0.044,0,0.089-0.001,0.134-0.003   c1.115-0.049,2.124-0.752,2.634-1.835L61.666,26.38C62.344,24.939,61.848,23.201,60.537,22.423z M6,31.754V30H4v1.754   c0,0.477,0.035,0.949,0.094,1.417C2.788,31.93,2,30.2,2,28.329c0-1.325,0.389-2.609,1.124-3.712L4,23.303V11.899   C4,7.543,7.543,4,11.899,4c0.8,0,1.581,0.123,2.335,0.358C14.085,4.88,14,5.43,14,6h2c0-2.206,1.794-4,4-4h9   c7.168,0,13,5.832,13,13v8.303l0.876,1.314C43.611,25.72,44,27.004,44,28.329c0,1.871-0.788,3.601-2.094,4.842   C41.964,32.704,42,32.231,42,31.754V30h-2v1.754c0,3.488-1.942,6.695-4.972,8.361c-0.849-0.619-1.785-1.102-2.77-1.456   C35.676,36.791,38,33.162,38,29V19c0-3.86-3.14-7-7-7H19c-1.654,0-3-1.346-3-3V8h-2v1c0,0.678,0.138,1.323,0.384,1.913   l-1.842,0.691C9.825,12.622,8,15.256,8,18.158V29c0,4.021,2.176,7.535,5.405,9.454c-1.123,0.278-2.197,0.678-3.205,1.194   C7.605,37.88,6,34.912,6,31.754z M10,27.89c1.272,1.3,3.042,2.11,5,2.11c3.86,0,7-3.14,7-7c0-1.075-0.25-2.089-0.685-3h3.37   C24.25,20.911,24,21.925,24,23c0,3.86,3.14,7,7,7c1.958,0,3.728-0.81,5-2.11V29c0,4.962-4.038,9-9,9h-8c-4.962,0-9-4.038-9-9V27.89   z M15.557,12.609C16.455,13.466,17.664,14,19,14h12c2.418,0,4.439,1.726,4.9,4.009C34.636,16.768,32.907,16,31,16   c-1.902,0-3.627,0.765-4.89,2H19.89c-1.263-1.235-2.988-2-4.89-2c-1.956,0-3.725,0.808-4.996,2.106   c0.022-2.052,1.316-3.909,3.24-4.629L15.557,12.609z M31,18c2.757,0,5,2.243,5,5s-2.243,5-5,5s-5-2.243-5-5S28.243,18,31,18z    M15,18c2.757,0,5,2.243,5,5s-2.243,5-5,5s-5-2.243-5-5S12.243,18,15,18z M25.414,40H28v2.586L25.414,40z M23.382,42h-0.764   l-0.401-0.803L23,40.414l0.783,0.783L23.382,42z M20,44h-0.586l1.312-1.312l0.223,0.445l-0.216,1.01C20.505,44.053,20.259,44,20,44   z M18,40h2.586L18,42.586V40z M16,40.051V43c0,0.337,0.037,0.67,0.084,1H14v-3.637C14.65,40.209,15.317,40.103,16,40.051z M20,46   v4.55C19.413,50.21,18.741,50,18.015,50h-0.05c-0.197-1.135-1.188-2-2.378-2c-0.645,0-1.251,0.251-1.707,0.707L12.586,50H10v-4H20z    M14,51.414l1.293-1.293C15.531,49.882,16,50.077,16,50.414V52h2.015C19.109,52,20,52.891,20,53.985C20,55.096,19.103,56,18,56h-4   V51.414z M22,47.773L22.809,44h0.383l0.834,3.892C23.694,47.962,23.352,48,23,48c-0.34,0-0.672-0.044-1-0.111V47.773z    M25.893,47.062l-0.842-3.929l0.223-0.445l2.305,2.305C27.215,45.828,26.626,46.539,25.893,47.062z M4,53   c0-5.397,3.307-10.034,8-11.997V44h-2c-1.103,0-2,0.897-2,2v4H6v2h6v4H7C5.346,56,4,54.654,4,53z M10,58h8   c0.732,0,1.409-0.213,2-0.558V60H10V58z M31,60h-9V49.916C22.33,49.963,22.663,50,23,50c3.86,0,7-3.14,7-7v-2.869   c0.689,0.113,1.36,0.302,2,0.569V59C32,59.551,31.551,60,31,60z M34,48.586v-6.734c0.442,0.337,0.86,0.709,1.236,1.127l5.453,6.059   l-2.772,3.465L34,48.586z M40.105,52.975l-0.002-0.004L42.48,50H45c0.551,0,1,0.449,1,1s-0.449,1-1,1h-2.016l-1.339,2.84   C41.004,54.342,40.475,53.715,40.105,52.975z M43.959,59.31c-0.189,0.403-0.548,0.673-0.913,0.689   c-0.2,0.009-0.387-0.038-0.564-0.143c-0.427-0.255-0.579-0.877-0.338-1.388L44.252,54H45c0.635,0,1.226-0.199,1.711-0.537   L43.959,59.31z M59.856,25.529L47.989,50.747c-0.074-0.879-0.528-1.652-1.198-2.152l11.247-23.899   c0.19-0.405,0.549-0.678,0.913-0.695c0.2-0.01,0.387,0.037,0.565,0.143C59.944,24.397,60.096,25.019,59.856,25.529z"/><path d="M15,26c1.654,0,3-1.346,3-3s-1.346-3-3-3s-3,1.346-3,3S13.346,26,15,26z M15,22c0.551,0,1,0.449,1,1s-0.449,1-1,1   s-1-0.449-1-1S14.449,22,15,22z"/></g>
</svg>