<svg  fill="white" xmlns="http://www.w3.org/2000/svg" xmlns:xlink="http://www.w3.org/1999/xlink" version="1.1" x="0px" y="0px" viewBox="0 0 57.97 72.5" style="enable-background:new 0 0 57.97 58;" xml:space="preserve"><g><path d="M13,26c2.757,0,5-2.243,5-5s-2.243-5-5-5s-5,2.243-5,5S10.243,26,13,26z M13,19c1.105,0,2,0.895,2,2c0,1.105-0.895,2-2,2   s-2-0.895-2-2C11,19.895,11.895,19,13,19z"/><path d="M24,21c0,2.757,2.243,5,5,5s5-2.243,5-5s-2.243-5-5-5S24,18.243,24,21z M31,21c0,1.105-0.895,2-2,2s-2-0.895-2-2   c0-1.105,0.895-2,2-2S31,19.895,31,21z"/><path d="M8,27c0,4.962,4.038,9,9,9h8c4.962,0,9-4.038,9-9v-1.11c-1.272,1.3-3.042,2.11-5,2.11c-3.86,0-7-3.14-7-7   c0-1.075,0.25-2.089,0.685-3h-3.37C19.75,18.911,20,19.925,20,21c0,3.86-3.14,7-7,7c-1.958,0-3.728-0.81-5-2.11V27z M16,30h6   c1.103,0,2-0.897,2-2h2c0,2.206-1.794,4-4,4h-6V30z"/><polygon points="26,38 23.414,38 26,40.586  "/><path d="M16.015,50H14v-1.586c0-0.337-0.469-0.532-0.707-0.293L12,49.414V54h4c1.103,0,2-0.904,2-2.015   C18,50.891,17.109,50,16.015,50z"/><path d="M29,12H17c-1.336,0-2.545-0.534-3.443-1.391l-2.313,0.867c-1.924,0.721-3.218,2.578-3.24,4.629   C9.275,14.808,11.044,14,13,14c1.902,0,3.627,0.765,4.89,2h6.221c1.263-1.235,2.988-2,4.89-2c1.907,0,3.636,0.768,4.9,2.009   C33.439,13.726,31.418,12,29,12z"/><path d="M8,56v2h10v-2.558C17.409,55.787,16.732,56,16,56H8z"/><path d="M10,50H4v-2h2v-4c0-1.103,0.897-2,2-2h2v-2.997C5.307,40.966,2,45.603,2,51c0,1.654,1.346,3,3,3h5V50z"/><path d="M23.052,41.133l0.842,3.929c0.733-0.524,1.321-1.234,1.686-2.069l-2.305-2.305L23.052,41.133z"/><path d="M8,48h2.586l1.293-1.293C12.334,46.251,12.941,46,13.586,46c1.19,0,2.182,0.865,2.378,2h0.05   c0.726,0,1.398,0.21,1.985,0.55V44H8V48z"/><path d="M28,41c0,3.86-3.14,7-7,7c-0.337,0-0.67-0.037-1-0.084V58h9c0.551,0,1-0.449,1-1V38.7c-0.64-0.266-1.311-0.455-2-0.569V41z   "/><path d="M20,45.889C20.328,45.956,20.66,46,21,46c0.352,0,0.694-0.038,1.025-0.108L21.191,42h-0.383L20,45.773V45.889z"/><path d="M17.414,42H18c0.259,0,0.505,0.053,0.732,0.143l0.216-1.01l-0.223-0.445L17.414,42z"/><path d="M43,50c0.551,0,1-0.449,1-1s-0.449-1-1-1h-2.52l-2.377,2.971l0.002,0.004c0.37,0.74,0.898,1.367,1.54,1.865L40.984,50H43z"/><path d="M38,29.754V28h2v1.754c0,0.477-0.036,0.95-0.094,1.417C41.212,29.93,42,28.2,42,26.329c0-1.325-0.389-2.609-1.124-3.712   L40,21.303V13c0-7.168-5.832-13-13-13h-9c-2.206,0-4,1.794-4,4h-2c0-0.57,0.085-1.12,0.234-1.642C11.48,2.123,10.699,2,9.899,2   C5.543,2,2,5.543,2,9.899v11.403l-0.876,1.314C0.389,23.72,0,25.004,0,26.329c0,1.871,0.788,3.601,2.094,4.842   C2.035,30.703,2,30.231,2,29.754V28h2v1.754c0,3.159,1.605,6.126,4.2,7.893c1.008-0.516,2.082-0.916,3.205-1.194   C8.176,34.535,6,31.021,6,27V16.158c0-2.902,1.825-5.536,4.542-6.555l1.842-0.691C12.138,8.323,12,7.678,12,7V6h2v1   c0,1.654,1.346,3,3,3h12c3.86,0,7,3.14,7,7v10c0,4.162-2.324,7.791-5.743,9.659c0.985,0.354,1.921,0.837,2.77,1.456   C36.058,36.449,38,33.242,38,29.754z"/><path d="M57.516,22.144c-0.178-0.106-0.365-0.152-0.565-0.143c-0.364,0.017-0.723,0.29-0.913,0.695L44.792,46.595   c0.669,0.5,1.124,1.272,1.198,2.152l11.867-25.217C58.096,23.019,57.944,22.397,57.516,22.144z"/><path d="M42.252,52l-2.107,4.469c-0.241,0.51-0.089,1.133,0.338,1.388c0.177,0.104,0.364,0.152,0.564,0.143   c0.365-0.016,0.723-0.287,0.913-0.689l2.751-5.847C44.226,51.801,43.635,52,43,52H42.252z"/><path d="M33.236,40.979c-0.377-0.419-0.794-0.791-1.236-1.127v6.734l3.917,3.917l2.772-3.465L33.236,40.979z"/><polygon points="16,40.586 18.586,38 16,38  "/><path d="M14,41v-2.949c-0.683,0.052-1.35,0.158-2,0.313V42h2.084C14.037,41.67,14,41.337,14,41z"/></g></svg>